<svg width="194" height="33" viewBox="0 0 194 33" fill="none" xmlns="http://www.w3.org/2000/svg">
<path d="M57.4727 21.9727C56.9727 22.6836 56.1875 23.2383 55.1172 23.6367C54.0547 24.0352 52.8633 24.2344 51.543 24.2344C50.207 24.2344 49.0195 23.9141 47.9805 23.2734C46.9414 22.6328 46.1367 21.7266 45.5664 20.5547C44.9961 19.3828 44.707 18.0391 44.6992 16.5234V14.3672C44.6992 12 45.2969 10.1328 46.4922 8.76562C47.6875 7.39062 49.293 6.70312 51.3086 6.70312C53.0664 6.70312 54.4805 7.15234 55.5508 8.05078C56.6211 8.94141 57.2578 10.1719 57.4609 11.7422H56.0195C55.8086 10.4922 55.2969 9.54688 54.4844 8.90625C53.6797 8.25781 52.625 7.93359 51.3203 7.93359C49.7266 7.93359 48.4648 8.5 47.5352 9.63281C46.6055 10.7656 46.1406 12.3633 46.1406 14.4258V16.4414C46.1406 17.7383 46.3594 18.8867 46.7969 19.8867C47.2422 20.8789 47.875 21.6484 48.6953 22.1953C49.5234 22.7422 50.4727 23.0156 51.543 23.0156C52.7852 23.0156 53.8516 22.8203 54.7422 22.4297C55.3203 22.1719 55.75 21.8711 56.0312 21.5273V17.1211H51.4492V15.9023H57.4727V21.9727Z" fill="white"/>
<path d="M69.2383 24C69.0977 23.6016 69.0078 23.0117 68.9688 22.2305C68.4766 22.8711 67.8477 23.3672 67.082 23.7188C66.3242 24.0625 65.5195 24.2344 64.668 24.2344C63.4492 24.2344 62.4609 23.8945 61.7031 23.2148C60.9531 22.5352 60.5781 21.6758 60.5781 20.6367C60.5781 19.4023 61.0898 18.4258 62.1133 17.707C63.1445 16.9883 64.5781 16.6289 66.4141 16.6289H68.957V15.1875C68.957 14.2812 68.6758 13.5703 68.1133 13.0547C67.5586 12.5312 66.7461 12.2695 65.6758 12.2695C64.6992 12.2695 63.8906 12.5195 63.25 13.0195C62.6094 13.5195 62.2891 14.1211 62.2891 14.8242L60.8828 14.8125C60.8828 13.8047 61.3516 12.9336 62.2891 12.1992C63.2266 11.457 64.3789 11.0859 65.7461 11.0859C67.1602 11.0859 68.2734 11.4414 69.0859 12.1523C69.9062 12.8555 70.3281 13.8398 70.3516 15.1055V21.1055C70.3516 22.332 70.4805 23.25 70.7383 23.8594V24H69.2383ZM64.832 22.9922C65.7695 22.9922 66.6055 22.7656 67.3398 22.3125C68.082 21.8594 68.6211 21.2539 68.957 20.4961V17.707H66.4492C65.0508 17.7227 63.957 17.9805 63.168 18.4805C62.3789 18.9727 61.9844 19.6523 61.9844 20.5195C61.9844 21.2305 62.2461 21.8203 62.7695 22.2891C63.3008 22.7578 63.9883 22.9922 64.832 22.9922Z" fill="white"/>
<path d="M75.3789 11.3203L75.4258 13.3828C75.8945 12.6172 76.4805 12.043 77.1836 11.6602C77.8867 11.2773 78.668 11.0859 79.5273 11.0859C81.5273 11.0859 82.7969 11.9062 83.3359 13.5469C83.7891 12.7578 84.3945 12.1523 85.1523 11.7305C85.9102 11.3008 86.7461 11.0859 87.6602 11.0859C90.3789 11.0859 91.7656 12.5703 91.8203 15.5391V24H90.4141V15.6445C90.4062 14.5117 90.1602 13.6719 89.6758 13.125C89.1992 12.5781 88.418 12.3047 87.332 12.3047C86.3242 12.3203 85.4727 12.6484 84.7773 13.2891C84.082 13.9219 83.6953 14.6953 83.6172 15.6094V24H82.2109V15.5391C82.2031 14.4531 81.9453 13.6445 81.4375 13.1133C80.9375 12.5742 80.1641 12.3047 79.1172 12.3047C78.2344 12.3047 77.4766 12.5586 76.8438 13.0664C76.2109 13.5664 75.7422 14.3125 75.4375 15.3047V24H74.0312V11.3203H75.3789Z" fill="white"/>
<path d="M100.293 24.2344C99.2148 24.2344 98.2383 23.9688 97.3633 23.4375C96.4961 22.9062 95.8203 22.168 95.3359 21.2227C94.8516 20.2695 94.6094 19.2031 94.6094 18.0234V17.5195C94.6094 16.3008 94.8438 15.2031 95.3125 14.2266C95.7891 13.25 96.4492 12.4844 97.293 11.9297C98.1367 11.3672 99.0508 11.0859 100.035 11.0859C101.574 11.0859 102.793 11.6133 103.691 12.668C104.598 13.7148 105.051 15.1484 105.051 16.9688V17.7539H96.0039V18.0234C96.0039 19.4609 96.4141 20.6602 97.2344 21.6211C98.0625 22.5742 99.1016 23.0508 100.352 23.0508C101.102 23.0508 101.762 22.9141 102.332 22.6406C102.91 22.3672 103.434 21.9297 103.902 21.3281L104.781 21.9961C103.75 23.4883 102.254 24.2344 100.293 24.2344ZM100.035 12.2812C98.9805 12.2812 98.0898 12.668 97.3633 13.4414C96.6445 14.2148 96.207 15.2539 96.0508 16.5586H103.656V16.4062C103.617 15.1875 103.27 14.1953 102.613 13.4297C101.957 12.6641 101.098 12.2812 100.035 12.2812Z" fill="white"/>
<path d="M125.594 9.78516H120.367V24H116.852V9.78516H111.695V6.9375H125.594V9.78516Z" fill="white"/>
<path d="M133.738 14.4961C133.277 14.4336 132.871 14.4023 132.52 14.4023C131.238 14.4023 130.398 14.8359 130 15.7031V24H126.613V11.3203H129.812L129.906 12.832C130.586 11.668 131.527 11.0859 132.73 11.0859C133.105 11.0859 133.457 11.1367 133.785 11.2383L133.738 14.4961Z" fill="white"/>
<path d="M142.375 24C142.219 23.6953 142.105 23.3164 142.035 22.8633C141.215 23.7773 140.148 24.2344 138.836 24.2344C137.594 24.2344 136.562 23.875 135.742 23.1562C134.93 22.4375 134.523 21.5312 134.523 20.4375C134.523 19.0938 135.02 18.0625 136.012 17.3438C137.012 16.625 138.453 16.2617 140.336 16.2539H141.895V15.5273C141.895 14.9414 141.742 14.4727 141.438 14.1211C141.141 13.7695 140.668 13.5938 140.02 13.5938C139.449 13.5938 139 13.7305 138.672 14.0039C138.352 14.2773 138.191 14.6523 138.191 15.1289H134.805C134.805 14.3945 135.031 13.7148 135.484 13.0898C135.938 12.4648 136.578 11.9766 137.406 11.625C138.234 11.2656 139.164 11.0859 140.195 11.0859C141.758 11.0859 142.996 11.4805 143.91 12.2695C144.832 13.0508 145.293 14.1523 145.293 15.5742V21.0703C145.301 22.2734 145.469 23.1836 145.797 23.8008V24H142.375ZM139.574 21.6445C140.074 21.6445 140.535 21.5352 140.957 21.3164C141.379 21.0898 141.691 20.7891 141.895 20.4141V18.2344H140.629C138.934 18.2344 138.031 18.8203 137.922 19.9922L137.91 20.1914C137.91 20.6133 138.059 20.9609 138.355 21.2344C138.652 21.5078 139.059 21.6445 139.574 21.6445Z" fill="white"/>
<path d="M153.168 21.5039C153.793 21.5039 154.301 21.332 154.691 20.9883C155.082 20.6445 155.285 20.1875 155.301 19.6172H158.477C158.469 20.4766 158.234 21.2656 157.773 21.9844C157.312 22.6953 156.68 23.25 155.875 23.6484C155.078 24.0391 154.195 24.2344 153.227 24.2344C151.414 24.2344 149.984 23.6602 148.938 22.5117C147.891 21.3555 147.367 19.7617 147.367 17.7305V17.5078C147.367 15.5547 147.887 13.9961 148.926 12.832C149.965 11.668 151.391 11.0859 153.203 11.0859C154.789 11.0859 156.059 11.5391 157.012 12.4453C157.973 13.3438 158.461 14.543 158.477 16.043H155.301C155.285 15.3867 155.082 14.8555 154.691 14.4492C154.301 14.0352 153.785 13.8281 153.145 13.8281C152.355 13.8281 151.758 14.1172 151.352 14.6953C150.953 15.2656 150.754 16.1953 150.754 17.4844V17.8359C150.754 19.1406 150.953 20.0781 151.352 20.6484C151.75 21.2188 152.355 21.5039 153.168 21.5039Z" fill="white"/>
<path d="M165.016 18.9141L163.797 20.1328V24H160.41V6H163.797V15.9727L164.453 15.1289L167.699 11.3203H171.766L167.184 16.6055L172.164 24H168.273L165.016 18.9141Z" fill="white"/>
<path d="M178.832 24.2344C176.973 24.2344 175.457 23.6641 174.285 22.5234C173.121 21.3828 172.539 19.8633 172.539 17.9648V17.6367C172.539 16.3633 172.785 15.2266 173.277 14.2266C173.77 13.2188 174.465 12.4453 175.363 11.9062C176.27 11.3594 177.301 11.0859 178.457 11.0859C180.191 11.0859 181.555 11.6328 182.547 12.7266C183.547 13.8203 184.047 15.3711 184.047 17.3789V18.7617H175.973C176.082 19.5898 176.41 20.2539 176.957 20.7539C177.512 21.2539 178.211 21.5039 179.055 21.5039C180.359 21.5039 181.379 21.0312 182.113 20.0859L183.777 21.9492C183.27 22.668 182.582 23.2305 181.715 23.6367C180.848 24.0352 179.887 24.2344 178.832 24.2344ZM178.445 13.8281C177.773 13.8281 177.227 14.0547 176.805 14.5078C176.391 14.9609 176.125 15.6094 176.008 16.4531H180.719V16.1836C180.703 15.4336 180.5 14.8555 180.109 14.4492C179.719 14.0352 179.164 13.8281 178.445 13.8281Z" fill="white"/>
<path d="M193.105 14.4961C192.645 14.4336 192.238 14.4023 191.887 14.4023C190.605 14.4023 189.766 14.8359 189.367 15.7031V24H185.98V11.3203H189.18L189.273 12.832C189.953 11.668 190.895 11.0859 192.098 11.0859C192.473 11.0859 192.824 11.1367 193.152 11.2383L193.105 14.4961Z" fill="white"/>
<path fill-rule="evenodd" clip-rule="evenodd" d="M9.37479 2.44507L7.33505 0L0 6.1192L2.03958 8.56427L9.37479 2.44507ZM31.6625 6.12013L24.3273 0.00093174L22.2876 2.446L29.6228 8.5652L31.6625 6.12013ZM15.8313 3.48595C7.91883 3.48595 1.50287 9.90191 1.50287 17.8144C1.50287 25.7269 7.91883 32.1429 15.8313 32.1429C23.7438 32.1429 30.1598 25.7269 30.1598 17.8144C30.1598 9.90191 23.7438 3.48595 15.8313 3.48595ZM4.687 17.8144C4.687 23.9597 9.68603 28.9587 15.8313 28.9587C21.9767 28.9587 26.9757 23.9597 26.9757 17.8144C26.9757 11.6691 21.9767 6.67005 15.8313 6.67005C9.68603 6.67005 4.687 11.6691 4.687 17.8144Z" fill="white"/>
<path d="M23.3967 20.7349L22.5355 14.6824C22.3142 13.1258 20.9789 11.9722 19.4065 11.9722H12.2477C10.6753 11.9722 9.33996 13.1258 9.11871 14.6824L8.25745 20.7349C8.08362 21.9518 9.0239 23.0343 10.2486 23.0343C10.7859 23.0343 11.2916 22.8209 11.6709 22.4417L13.4566 20.6638H18.1975L19.9754 22.4417C20.3547 22.8209 20.8683 23.0343 21.3977 23.0343C22.6303 23.0343 23.5706 21.9518 23.3967 20.7349ZM15.0369 16.7131H13.4566V18.2934H12.6665V16.7131H11.0862V15.9229H12.6665V14.3426H13.4566V15.9229H15.0369V16.7131ZM18.1975 15.9229C17.763 15.9229 17.4074 15.5674 17.4074 15.1328C17.4074 14.6982 17.763 14.3426 18.1975 14.3426C18.6321 14.3426 18.9877 14.6982 18.9877 15.1328C18.9877 15.5674 18.6321 15.9229 18.1975 15.9229ZM19.7779 18.2934C19.3433 18.2934 18.9877 17.9378 18.9877 17.5032C18.9877 17.0686 19.3433 16.7131 19.7779 16.7131C20.2124 16.7131 20.568 17.0686 20.568 17.5032C20.568 17.9378 20.2124 18.2934 19.7779 18.2934Z" fill="white"/>
</svg>
