<svg width="25" height="25" viewBox="0 0 25 25" fill="none" xmlns="http://www.w3.org/2000/svg">
<path fill-rule="evenodd" clip-rule="evenodd" d="M7.2915 1.90172L5.70504 0L0 4.75938L1.58634 6.6611L7.2915 1.90172ZM24.6264 4.76015L18.9213 0.000766754L17.3348 1.90249L23.04 6.66187L24.6264 4.76015ZM12.3132 2.7113C6.15909 2.7113 1.1689 7.70149 1.1689 13.8556C1.1689 20.0098 6.15909 25 12.3132 25C18.4674 25 23.4576 20.0098 23.4576 13.8556C23.4576 7.70149 18.4674 2.7113 12.3132 2.7113ZM3.64545 13.8556C3.64545 18.6353 7.53359 22.5235 12.3133 22.5235C17.093 22.5235 20.9811 18.6353 20.9811 13.8556C20.9811 9.07596 17.093 5.18782 12.3133 5.18782C7.53359 5.18782 3.64545 9.07596 3.64545 13.8556Z" fill="white"/>
<path d="M18.1975 16.1272L17.5276 11.4196C17.3555 10.209 16.3169 9.3117 15.0939 9.3117H9.52599C8.30301 9.3117 7.2644 10.209 7.09233 11.4196L6.42245 16.1272C6.28725 17.0736 7.01858 17.9156 7.97115 17.9156C8.38905 17.9156 8.78237 17.7496 9.07736 17.4546L10.4663 16.0719H14.1536L15.5364 17.4546C15.8314 17.7496 16.2309 17.9156 16.6426 17.9156C17.6013 17.9156 18.3327 17.0736 18.1975 16.1272ZM11.6954 12.9991H10.4663V14.2282H9.85171V12.9991H8.62259V12.3845H9.85171V11.1554H10.4663V12.3845H11.6954V12.9991ZM14.1536 12.3845C13.8156 12.3845 13.5391 12.108 13.5391 11.7699C13.5391 11.4319 13.8156 11.1554 14.1536 11.1554C14.4917 11.1554 14.7682 11.4319 14.7682 11.7699C14.7682 12.108 14.4917 12.3845 14.1536 12.3845ZM15.3828 14.2282C15.0448 14.2282 14.7682 13.9516 14.7682 13.6136C14.7682 13.2756 15.0448 12.9991 15.3828 12.9991C15.7208 12.9991 15.9973 13.2756 15.9973 13.6136C15.9973 13.9516 15.7208 14.2282 15.3828 14.2282Z" fill="white"/>
</svg>
